<?xml version="1.0" ?><svg style="enable-background:new 0 0 48 48;" version="1.1" viewBox="0 0 48 48" xml:space="preserve" xmlns="http://www.w3.org/2000/svg" xmlns:xlink="http://www.w3.org/1999/xlink"><g id="Icons"><g><path d="M36.47945,23.0817c0-0.93-0.4983-1.6073-1.4183-1.6073l-8.7033,0.0142    c0.2023-0.2782,1.2309-4.0994,1.155-4.833c-0.0544-0.5258-0.2087-1.0503-0.3366-1.5615    c-0.1712-0.6841-0.3554-1.3647-0.5396-2.0453c-0.1176-0.435-0.8064-0.7405-1.1884-0.8787    c-0.5807-0.21-1.1988-0.1143-1.6851,0.2674c-0.2588,0.2032-0.6606,0.5376-0.6602,0.8889    c0.0017,1.2173-0.0011,2.4346,0.0035,3.6519c0,0.0106,0.0001,0.0212,0.0001,0.0318c0.0003,0.0616,0.0004,0.1241-0.0154,0.1837    c-0.0169,0.0638-0.0513,0.1214-0.0852,0.1781c-0.6816,1.1368-1.3601,2.2755-2.0382,3.4144    c-0.2974,0.4994-0.5946,0.9989-0.8909,1.4989c-0.2688,0.4534-0.5135,0.948-0.9745,1.2377    c-0.4073,0.2558-0.7805,0.492-1.1901,0.7473l-0.9845,0.136l0.5197,9.4887h1.4061c0.212,0,0.4203,0.0611,0.5963,0.1793    c0.2802,0.1883,0.5576,0.3808,0.8455,0.5573c0.1646,0.1008,0.3529,0.2418,0.5397,0.2949l6.926,0.008l4.838,0.0013    c0.9355,0.0003,1.713-0.7651,1.6946-1.7004c-0.0167-0.847-0.156-1.6076-1.0035-1.6076h0.1076c0.9139,0,1.618-0.7472,1.6086-1.6611    c-0.0099-0.9691,0.1376-1.7622-0.828-1.7622h0.3228c0.92,0,1.4099-0.8035,1.4099-1.7335c0-0.92,0.1202-1.659-0.7998-1.659h0.3215    C36.35275,24.8119,36.47945,24.0017,36.47945,23.0817z" style="fill:#F2F2F2;"/><path d="M16.54175,35.9389h-3.6865c-0.7371,0-1.3347-0.5976-1.3347-1.3347V24.3299    c0-0.7371,0.5976-1.3347,1.3347-1.3347h3.6865c0.7371,0,1.3347,0.5976,1.3347,1.3347v10.2743    C17.87645,35.3413,17.27885,35.9389,16.54175,35.9389z" style="fill:#5F83CF;"/></g></g></svg>