<?xml version="1.0" ?><svg id="Layer_1" style="enable-background:new 0 0 48 48;" version="1.1" viewBox="0 0 48 48" xml:space="preserve" xmlns="http://www.w3.org/2000/svg" xmlns:xlink="http://www.w3.org/1999/xlink"><g id="Icons"><g><circle cx="16.4045" cy="33.32859" r="1.3666" style="fill:#385C9B;"/><g id="Icons_31_"><g><path d="M18.97247,33.42039c0.3438,0,1.05273-0.0064,1.39673-0.0133      c0.2408-0.0049,0.399,0.1482,0.5904,0.278c0.2378,0.1613,0.4763,0.3217,0.7213,0.4719c0.1646,0.1009,0.353,0.2419,0.5398,0.2949      l6.926,0.0081l4.7544,0.0012c0.92,0,1.7801-0.5616,1.7801-1.4816c0-0.93,0.0779-1.8796-0.8421-1.8796h0.1076      c0.93,0,1.4448-0.7843,1.4448-1.7143c0-0.92-0.2584-1.6557-1.1884-1.6557h0.6836c0.92,0,1.41-0.8035,1.41-1.7335      c0-0.92-0.2515-1.6265-1.1715-1.6265h0.3215c0.92,0,1.4183-0.8428,1.4183-1.7628c0-0.93-0.4983-1.6072-1.4183-1.6072      l-8.7033,0.0142c0.2024-0.2783,1.2309-4.0995,1.155-4.833c-0.053-0.5124-0.2023-1.0233-0.3266-1.5216      c-0.174-0.6978-0.3624-1.3919-0.5497-2.0862c-0.0771-0.2857-0.2853-0.3673-0.5126-0.5275      c-0.1508-0.1064-0.3094-0.2029-0.4766-0.2813c-0.2809-0.1319-0.5885-0.2134-0.9006-0.197      c-0.3909,0.0206-0.7433,0.1992-1.0382,0.4487c-0.2647,0.224-0.6066,0.5133-0.606,0.8808      c0.0024,0.6931,0.0018,1.3862,0.002,2.0794c0.0001,0.3517,0.0002,0.7035,0.0002,1.0552c0,0.3147,0.0503,0.6162-0.1165,0.895      c-0.2235,0.4471-0.521,0.8709-0.7778,1.3c-0.2096,0.3504-0.4181,0.7015-0.6272,1.0522      c-0.4034,0.6766-0.8065,1.3533-1.2089,2.0305c-0.2662,0.4481-0.5987,0.8994-0.8109,1.3769      c-0.0506,0.1138-1.77117,1.18265-1.77117,1.18265" style="fill:#F2F2F2;"/><path d="M10.135,23.26439l1.3,13.1701h7.83v-13.1701C19.265,23.26439,10.135,23.26439,10.135,23.26439z       M16.405,34.34439c-0.58,0-1.04-0.46-1.04-1.03c0-0.5799,0.46-1.04,1.04-1.04c0.57,0,1.03,0.4601,1.03,1.04      C17.435,33.8844,16.975,34.34439,16.405,34.34439z" style="fill:#5F83CF;"/></g></g></g></g></svg>