<?xml version="1.0" ?><svg style="enable-background:new 0 0 48 48;" version="1.1" viewBox="0 0 48 48" xml:space="preserve" xmlns="http://www.w3.org/2000/svg" xmlns:xlink="http://www.w3.org/1999/xlink"><g id="Icons"><g><path d="M34.4243,21.96883l-8.7033,0.0141c0.2023-0.2782,1.2309-4.0994,1.155-4.833    c-0.0533-0.515-0.2036-1.0286-0.3286-1.5295c-0.1704-0.6829-0.3546-1.3622-0.5368-2.0421    c-0.1128-0.4211-0.6299-0.7239-1.0065-0.8759c-0.429-0.1733-0.9248-0.2256-1.3658-0.0648c-0.6035,0.22-1.2289,0.7919-1.1958,1.485    c0.0216,0.4515,0.025,0.8963,0.0249,1.3487c-0.0001,0.5633,0,1.1267,0.0008,1.69c0.0004,0.2939-0.1223,0.7408-0.2729,0.9931    l-0.3607,0.6042c-0.6068,1.0166-1.2132,2.0334-1.8185,3.0508c-0.2543,0.4275-0.5084,0.855-0.7615,1.2832    c-0.0649,0.1099-0.136,0.216-0.2018,0.3255c-0.0333,0.0554-0.0654,0.1118-0.0944,0.1696    c-0.0244,0.0486-0.0443,0.0891-0.0875,0.1245c-0.0553,0.0452-0.1139,0.0865-0.1722,0.1277    c-0.1909,0.1351-0.387,0.2631-0.5832,0.3904c-0.1991,0.1292-0.3992,0.2568-0.5999,0.3834    c-0.0919,0.058-0.1838,0.1158-0.276,0.1732l-5.0822,0.0721v9.6073l5.158-0.0771h1.1299c0.063,0,0.1247,0.0182,0.1776,0.0525    l1.0432,0.6754c0.3355,0.2172,0.7243,0.3431,1.124,0.3419c0.3403-0.0009,0.6904-0.029,1.0161-0.029c0.5614,0,1.1228,0,1.6842,0    c1.0216,0,2.0432,0,3.0648,0c0.1906,0,0.3811,0,0.5717,0l-0.8226-0.0013h0.82l4.8506,0.0013    c0.9258,0.0003,1.679-0.757,1.6847-1.6828c0.0052-0.8609,0.0108-1.6785-0.8429-1.6785h0.0257c0.8283,0,1.4887-0.6662,1.522-1.4938    c0.0411-1.0201-0.1805-1.8761-1.1837-1.8761h0.6836c0.92,0,1.4099-0.8036,1.4099-1.7336c0-0.92-0.2515-1.6264-1.1715-1.6264    h0.1136c0.8174,0,1.5088-0.6155,1.6058-1.4272C35.9532,22.81353,35.4518,21.96883,34.4243,21.96883z" style="fill:#F2F2F2;"/></g></g></svg>